<?xml version="1.0" standalone="no"?>
<!DOCTYPE svg PUBLIC "-//W3C//DTD SVG 20010904//EN"
 "http://www.w3.org/TR/2001/REC-SVG-20010904/DTD/svg10.dtd">
<svg version="1.0" xmlns="http://www.w3.org/2000/svg"
 width="500pt" height="500pt" viewBox="0 0 500.000000 500.000000"
 preserveAspectRatio="xMidYMid meet">

<g transform="translate(0.000000,500.000000) scale(0.100000,-0.100000)"
fill="#000000" stroke="none">
<path d="M2305 4793 c-52 -7 -236 -64 -340 -105 -136 -54 -307 -151 -435 -246
-115 -86 -285 -251 -419 -407 -187 -218 -349 -381 -481 -485 -58 -45 -110 -89
-117 -98 -9 -14 -7 -27 14 -70 39 -82 244 -280 367 -356 l96 -59 -68 -34 c-47
-23 -95 -60 -161 -124 l-94 -92 29 -24 c56 -45 131 -67 226 -67 l86 0 -19 -35
c-10 -20 -19 -42 -19 -49 0 -10 -6 -12 -18 -7 -99 41 -191 15 -233 -66 -11
-22 -37 -50 -60 -65 -41 -25 -89 -105 -89 -148 0 -11 -12 -37 -26 -58 -29 -41
-40 -106 -30 -163 9 -48 64 -107 154 -166 80 -53 142 -68 203 -52 32 8 40 7
66 -16 17 -14 85 -66 151 -115 107 -78 120 -91 111 -108 -21 -39 -7 -71 44
-103 27 -16 78 -49 113 -73 69 -46 116 -61 138 -43 10 9 46 -10 165 -90 l151
-102 0 -76 c0 -42 3 -93 6 -113 l6 -37 -48 -3 c-42 -3 -49 -6 -52 -25 -2 -13
-9 -23 -16 -23 -21 0 -34 23 -27 44 14 39 -5 108 -37 137 -44 39 -89 46 -147
20 -44 -19 -48 -20 -73 -4 -76 46 -183 121 -231 162 -30 25 -96 77 -146 116
-164 126 -254 199 -353 285 l-97 84 -3 -78 c-4 -108 27 -225 91 -349 56 -109
100 -158 235 -266 77 -63 291 -188 348 -205 19 -6 21 -14 21 -74 -1 -139 90
-236 234 -249 33 -3 59 -9 59 -12 0 -4 -18 -65 -40 -136 -23 -71 -39 -139 -38
-150 3 -19 11 -20 134 -23 l132 -3 23 56 c25 60 14 55 131 59 17 1 25 -10 41
-57 l19 -57 226 2 227 3 11 65 10 65 27 -43 c16 -24 33 -54 39 -68 l11 -24
241 2 241 3 10 65 11 65 43 -67 43 -68 227 0 c178 0 231 3 246 14 16 11 20 30
23 110 3 61 0 101 -6 109 -7 7 -9 29 -6 49 6 33 10 36 46 42 77 13 144 61 180
129 15 30 19 56 17 114 l-2 75 104 55 c227 120 396 278 483 451 46 91 94 370
67 386 -7 4 -49 -26 -100 -71 -100 -88 -133 -115 -247 -205 -44 -35 -138 -110
-209 -168 -70 -58 -164 -129 -208 -157 l-79 -53 -26 20 c-17 14 -40 20 -74 20
-91 0 -147 -45 -156 -126 -4 -42 -6 -44 -38 -44 -27 0 -35 -5 -40 -25 -10 -42
-30 -50 -68 -30 -33 18 -33 19 -42 112 -11 108 -11 108 71 144 51 22 245 139
278 167 15 14 19 13 38 -4 20 -18 22 -18 92 20 71 39 227 135 227 141 0 1 -7
22 -15 45 -8 24 -14 44 -13 44 29 14 170 113 223 156 l70 57 85 5 c70 3 95 9
138 33 75 41 168 128 182 171 15 45 6 116 -19 160 -11 18 -24 57 -31 88 -9 43
-19 63 -47 88 -55 50 -73 70 -96 107 -42 66 -152 99 -218 66 -19 -10 -50 -29
-69 -44 -19 -14 -54 -31 -77 -37 l-43 -11 0 61 c-1 101 -41 179 -121 235 -35
24 -38 30 -39 73 0 55 12 66 150 141 47 25 120 70 163 99 114 79 308 266 367
355 27 41 50 78 50 82 0 4 -57 64 -126 132 -120 118 -168 175 -311 369 -322
438 -637 687 -1030 816 -57 19 -110 34 -117 34 -8 0 -24 -28 -37 -62 -18 -50
-38 -78 -94 -135 l-72 -72 -84 -3 c-76 -3 -89 0 -142 26 -86 43 -153 127 -190
239 -4 9 -10 16 -14 16 -4 -1 -21 -4 -38 -6z m19 -100 c31 -66 87 -133 138
-168 47 -31 48 -33 26 -40 -12 -4 -40 -20 -60 -36 -20 -16 -41 -29 -45 -29
-18 0 -82 62 -110 105 -31 49 -38 51 -98 30 -22 -8 -63 -15 -92 -15 -71 0 -98
-13 -130 -59 -16 -22 -35 -40 -44 -41 -33 0 -243 -134 -359 -228 -113 -91
-305 -289 -452 -467 -36 -44 -78 -90 -93 -103 l-27 -23 -38 25 -38 25 -19 -22
c-10 -12 -27 -33 -38 -47 l-20 -25 20 17 c19 16 22 16 53 -4 36 -23 34 -31
-21 -70 -25 -18 -30 -19 -24 -5 7 19 -3 23 -20 6 -7 -7 -10 -2 -7 21 3 28 2
30 -12 16 -21 -21 -30 -20 -13 1 17 21 -36 -16 -112 -78 -32 -26 -63 -49 -70
-51 -11 -4 -10 -10 3 -29 18 -29 137 -152 124 -129 -5 8 4 3 20 -12 74 -69
268 -202 356 -245 82 -39 98 -51 98 -70 0 -13 -4 -23 -9 -23 -5 0 -65 28 -133
63 -175 90 -333 216 -453 362 l-66 80 22 15 c120 79 398 347 533 513 96 118
278 304 381 388 216 177 515 326 770 382 38 9 41 7 59 -30z m771 2 c108 -30
289 -125 456 -238 135 -92 395 -359 499 -512 107 -158 240 -317 364 -436 l80
-77 -17 -26 c-36 -54 -285 -295 -357 -345 -66 -46 -180 -111 -195 -111 -3 0
-5 6 -5 14 0 7 26 27 58 44 76 41 192 129 268 202 34 33 66 60 71 60 6 0 23
16 37 35 15 20 32 33 37 30 5 -4 9 2 9 13 0 11 -23 37 -54 62 -30 24 -78 75
-107 114 -30 38 -68 84 -85 101 -17 16 -55 64 -84 105 -148 210 -295 380 -417
481 -133 111 -190 174 -198 222 -17 97 -134 142 -223 86 -18 -12 -28 -11 -69
5 -85 33 -85 33 -121 -23 -18 -28 -38 -53 -43 -57 -6 -3 -37 8 -69 25 -32 17
-65 31 -74 31 -9 0 -16 5 -16 10 0 6 4 10 8 10 25 0 95 78 122 136 24 49 36
64 48 60 9 -3 44 -12 77 -21z m-968 -239 c24 -21 28 -31 26 -74 l-2 -49 70
-33 c55 -25 69 -36 64 -49 -4 -9 -9 -33 -12 -53 -3 -21 -8 -38 -12 -38 -3 0
-43 18 -87 41 l-82 42 -27 -21 c-30 -24 -83 -29 -116 -11 -50 26 -43 107 12
129 25 11 29 18 29 53 0 80 76 115 137 63z m1244 5 c19 -15 24 -28 23 -63 -1
-39 2 -45 30 -58 57 -28 60 -111 5 -137 -32 -15 -82 -3 -115 28 -13 12 -24 16
-28 10 -8 -12 -103 -66 -132 -75 -19 -6 -22 -2 -27 31 -3 21 -8 45 -11 54 -5
12 9 23 58 48 l64 31 -1 51 c-2 44 2 54 26 75 34 29 76 31 108 5z m-519 -25
c79 -32 131 -77 174 -148 32 -52 38 -72 42 -133 4 -66 2 -78 -24 -126 -29 -52
-73 -89 -106 -89 -15 0 -18 -10 -18 -69 0 -75 -5 -81 -72 -81 -25 0 -27 3 -30
48 -2 39 -7 48 -24 50 -19 3 -22 -3 -29 -52 l-6 -56 -49 0 c-54 0 -60 7 -60
71 0 35 -3 39 -25 39 -21 0 -25 -5 -26 -32 -2 -61 -3 -63 -36 -66 -59 -6 -73
10 -73 83 0 55 -3 65 -17 65 -32 0 -83 39 -113 87 -86 136 15 353 193 414 80
28 225 25 299 -5z m-552 -426 c7 -16 18 -35 26 -41 26 -22 14 -35 -76 -79 -86
-42 -90 -46 -85 -71 7 -33 -16 -84 -46 -99 -35 -19 -90 -8 -113 23 -17 23 -19
32 -9 57 10 28 10 30 -12 30 -36 0 -68 32 -67 68 1 42 18 71 48 82 39 15 58
12 96 -14 l35 -24 89 49 c49 27 92 49 95 49 4 0 12 -13 19 -30z m921 -23 l75
-44 34 24 c19 13 47 23 63 23 39 0 77 -40 77 -81 0 -37 -33 -79 -62 -79 -15 0
-18 -8 -18 -42 0 -56 -21 -78 -75 -78 -60 0 -90 33 -83 94 l5 44 -42 16 c-23
9 -63 30 -90 47 l-47 30 20 22 c11 12 25 32 31 45 6 12 17 22 24 22 7 0 46
-20 88 -43z m-1551 -43 c0 -11 -49 -2 -53 10 -5 12 -1 13 24 4 16 -5 29 -12
29 -14z m1166 -295 c32 -6 65 -18 72 -27 6 -9 12 -40 12 -69 0 -79 -20 -93
-133 -93 -48 0 -97 5 -108 10 -41 22 -62 106 -38 151 20 39 85 48 195 28z
m-1951 -29 c3 -5 1 -10 -4 -10 -6 0 -11 5 -11 10 0 6 2 10 4 10 3 0 8 -4 11
-10z m1325 -60 c19 -37 27 -80 15 -80 -3 0 -23 9 -45 20 -73 37 -114 22 -154
-58 l-17 -33 37 -34 36 -33 -46 -7 c-26 -4 -49 -5 -52 -2 -6 6 -44 146 -44
164 0 18 74 54 165 79 44 12 81 23 82 23 2 1 12 -17 23 -39z m1150 -11 c25
-11 71 -37 102 -57 57 -36 58 -38 58 -83 0 -52 -17 -109 -32 -109 -6 0 -28 5
-49 11 l-38 12 29 34 c17 18 30 39 30 45 0 23 -51 97 -71 103 -31 10 -82 -2
-123 -30 l-36 -24 0 39 c0 81 41 99 130 59z m-2322 -22 c25 -24 15 -45 -14
-29 -13 7 -24 6 -41 -5 -24 -16 -24 -16 -12 10 10 21 9 30 -2 43 -13 16 -11
17 16 10 17 -4 40 -17 53 -29z m3092 3 c-8 -5 -19 -10 -25 -10 -5 0 -3 5 5 10
8 5 20 10 25 10 6 0 3 -5 -5 -10z m-2464 -190 c31 0 37 -34 10 -58 -54 -49
-77 -47 -91 9 -5 20 -1 32 16 48 15 14 26 18 33 11 5 -5 20 -10 32 -10z m1240
-44 c-21 -14 -104 -52 -185 -87 -80 -34 -148 -66 -149 -71 -2 -5 -11 -3 -19 4
-14 11 9 25 153 95 110 53 181 82 204 82 l35 0 -39 -23z m-196 8 c0 -3 -43
-26 -95 -50 -90 -43 -97 -45 -118 -30 -44 31 -60 46 -56 51 16 16 269 44 269
29z m1091 -48 c20 -45 24 -76 9 -76 -16 0 -39 43 -46 89 -9 55 9 49 37 -13z
m-1511 -32 c66 -32 73 -34 95 -20 19 13 25 13 43 1 27 -20 82 -104 82 -127 0
-29 -16 -21 -73 37 -60 60 -89 75 -147 75 -21 0 -42 4 -45 10 -10 16 -120 -3
-142 -25 -7 -7 -9 -15 -6 -19 6 -6 -20 -10 -46 -7 -8 2 -10 -2 -6 -10 5 -7 3
-10 -6 -7 -8 3 -25 -3 -38 -13 -13 -11 -31 -19 -40 -19 -22 0 -87 -54 -123
-104 l-31 -41 7 34 c19 100 125 194 274 242 48 15 97 28 108 28 12 1 54 -15
94 -35z m772 -29 c11 -14 28 -25 39 -25 12 0 19 -7 19 -20 0 -25 -1 -26 74 9
93 44 107 46 188 21 91 -27 138 -51 208 -105 73 -56 117 -78 126 -64 13 22 24
-10 38 -111 49 -353 24 -574 -88 -805 -47 -96 -66 -122 -147 -206 -157 -161
-345 -270 -563 -327 -92 -25 -117 -27 -286 -26 -256 0 -381 29 -591 135 -197
99 -370 263 -458 437 -25 50 -22 60 14 44 23 -11 25 -10 16 7 -11 20 3 41 27
41 8 0 10 5 6 13 -6 9 -5 9 8 -1 20 -16 42 6 28 28 -8 12 -13 11 -37 -6 -78
-57 -155 -78 -237 -63 -166 30 -268 151 -252 301 13 126 85 198 198 198 75 -1
127 -34 203 -127 15 -18 30 -33 35 -33 17 0 39 69 41 129 2 56 5 64 26 72 37
14 38 13 64 -43 28 -61 88 -120 167 -165 58 -33 100 -40 152 -23 23 7 23 8
-10 10 -20 2 -26 4 -15 7 11 2 38 0 60 -5 81 -17 243 45 344 132 13 12 21 16
17 9 -3 -6 -2 -14 3 -17 12 -8 103 93 98 108 -3 6 -9 10 -14 9 -5 -1 1 28 14
65 14 43 23 91 23 135 0 37 4 67 9 67 14 0 60 48 53 56 -4 4 -2 4 5 0 16 -9
105 35 99 50 -6 15 21 27 29 14 9 -15 37 1 30 18 -4 11 -2 12 7 4 10 -8 32 -2
83 20 39 17 79 37 90 44 27 19 34 18 57 -11z m75 -47 c-3 -8 -6 -5 -6 6 -1 11
2 17 5 13 3 -3 4 -12 1 -19z m718 -83 c19 -40 22 -57 16 -85 l-9 -35 -1 38
c-1 46 -12 67 -62 128 -21 25 -36 49 -32 53 11 11 63 -46 88 -99z m-2365 23
c11 -12 20 -28 20 -35 0 -17 -98 -113 -115 -113 -38 0 -52 114 -19 151 24 27
87 25 114 -3z m-155 -62 c-14 -36 -16 -62 -11 -119 3 -40 3 -88 0 -107 -7 -33
-7 -33 -16 -9 -5 13 -12 68 -15 121 -6 95 -5 98 22 133 15 20 29 34 32 31 3
-3 -3 -25 -12 -50z m405 -60 c0 -21 -20 -35 -52 -36 -18 0 -6 38 15 48 33 16
37 14 37 -12z m-750 -79 c0 -2 -24 -20 -52 -42 -65 -48 -118 -96 -118 -107 0
-12 64 -38 94 -38 14 0 28 -5 32 -12 11 -17 -104 -4 -156 19 l-43 19 72 64
c75 67 123 99 154 100 9 0 17 -1 17 -3z m748 -19 c-6 -17 -243 -97 -254 -85
-6 6 215 95 239 96 11 1 17 -4 15 -11z m814 -155 c-6 -2 -10 -9 -6 -14 3 -5 0
-9 -5 -9 -12 0 -14 13 -4 23 3 4 11 7 17 6 6 0 5 -3 -2 -6z m-1442 -58 c0 -14
-83 -155 -91 -155 -5 0 -9 3 -9 6 0 9 60 127 72 141 11 13 28 18 28 8z m2767
-37 c17 -18 36 -43 42 -55 16 -31 14 -142 -4 -195 -19 -54 -75 -118 -104 -118
-28 0 -27 8 9 57 32 44 60 120 60 166 0 32 -17 70 -28 63 -4 -2 -8 3 -8 12 0
9 -4 36 -8 60 -9 51 0 53 41 10z m-2017 -23 c0 -2 -6 -7 -12 -11 -7 -4 -10 -4
-6 1 4 4 0 14 -10 22 -15 13 -15 13 6 3 12 -6 22 -13 22 -15z m-948 -105 c13
-5 39 -23 58 -40 33 -29 34 -32 16 -43 -11 -7 -37 -27 -58 -46 -39 -34 -40
-34 -66 -17 -28 17 -69 37 -110 53 l-23 8 22 29 c45 57 107 79 161 56z m3409
-75 c65 -48 76 -79 29 -88 -16 -4 -48 -18 -70 -33 l-40 -26 -60 52 c-33 29
-60 56 -60 60 0 5 19 20 43 34 56 34 112 34 158 1z m-3201 -25 c21 -11 46
-101 35 -128 -7 -16 -8 -16 -14 2 -6 16 -11 14 -40 -22 -57 -73 -139 -76 -174
-9 -23 45 -21 48 72 119 65 49 88 56 121 38z m-334 -51 c27 -17 50 -33 52 -34
2 -2 14 -33 26 -69 l23 -66 -23 -25 c-29 -31 -35 -31 -75 2 -37 31 -123 73
-150 73 -22 0 -24 13 -8 61 15 44 57 89 84 89 12 0 43 -14 71 -31z m3348 -46
c85 -74 94 -99 45 -136 -44 -32 -91 -25 -148 22 -26 22 -51 38 -55 34 -12 -12
-5 72 8 96 11 21 50 50 67 51 3 0 40 -30 83 -67z m308 -4 c22 -12 48 -66 48
-102 0 -20 -5 -24 -30 -25 -16 0 -49 -10 -75 -21 -25 -11 -45 -17 -45 -14 0 3
-9 -5 -21 -18 -11 -13 -18 -19 -15 -12 4 6 2 14 -4 18 -6 4 -7 11 -4 17 4 6 3
8 -2 5 -6 -3 -16 -2 -22 2 -18 11 1 88 28 115 38 38 105 55 142 35z m-535
-175 c-16 -16 -215 -124 -227 -124 -6 0 0 17 14 38 13 20 34 62 46 93 20 50
27 57 56 62 18 3 50 17 71 31 l38 26 7 -57 c6 -41 4 -61 -5 -69z m-2760 69
c-4 -27 -9 -59 -13 -71 -6 -22 -5 -23 15 -10 19 11 27 10 64 -11 44 -24 207
-132 207 -136 0 -6 -102 -192 -114 -208 -13 -17 -17 -17 -68 12 -29 17 -63 38
-73 48 -11 10 -53 44 -93 77 l-72 58 -42 -27 c-27 -18 -59 -29 -87 -31 l-46
-3 45 9 c43 9 81 40 88 70 2 8 10 22 17 30 7 8 17 29 20 45 4 17 21 45 38 63
17 17 27 32 22 32 -5 0 10 12 33 28 24 15 45 37 49 50 10 39 16 23 10 -25z
m148 -18 c80 -48 145 -68 213 -64 42 3 44 2 72 -49 17 -28 30 -54 30 -57 0 -3
-17 6 -37 20 -40 27 -90 32 -124 14 -17 -9 -38 1 -134 65 -95 63 -112 79 -108
96 3 11 7 20 10 20 2 0 38 -20 78 -45z m-616 6 c57 -30 103 -86 99 -124 -2
-17 -9 -32 -16 -35 -7 -2 -12 0 -11 5 1 4 -1 15 -5 24 -8 18 -45 15 -58 -5 -4
-5 -23 -10 -42 -10 -32 0 -35 -2 -30 -20 4 -12 12 -24 18 -28 8 -6 8 -8 0 -8
-7 0 -26 16 -43 35 -34 39 -41 88 -20 142 18 48 47 55 108 24z m3363 -81 c18
-11 44 -22 59 -25 32 -7 78 -47 61 -53 -18 -6 -14 -22 6 -22 14 0 15 -2 2 -10
-8 -5 -10 -10 -5 -10 6 0 4 -4 -3 -9 -10 -6 -8 -14 11 -37 24 -28 27 -34 27
-53 0 -14 86 -33 121 -27 31 6 32 5 9 -5 -38 -16 -131 -5 -178 22 l-41 24 -28
-27 c-15 -14 -66 -50 -113 -78 -47 -29 -99 -65 -116 -81 l-30 -29 -24 42 c-41
75 -93 162 -109 181 -9 11 -11 21 -5 27 5 5 68 41 139 79 123 66 131 69 149
53 18 -16 18 -16 13 13 -3 17 -8 48 -12 70 l-7 40 21 -33 c11 -18 35 -41 53
-52z m478 25 c17 -21 25 -99 11 -121 -8 -14 -10 -15 -11 -4 0 12 -15 15 -65
16 -36 1 -65 -3 -65 -9 0 -5 -8 -1 -17 10 -10 10 -13 12 -8 4 8 -11 7 -13 -4
-7 -8 5 -17 3 -22 -5 -7 -11 -9 -9 -9 6 0 21 66 92 105 113 29 16 70 14 85 -3z
m-2906 -197 c50 -33 95 -64 99 -68 17 -15 -139 -291 -244 -433 -9 -12 -220
123 -212 137 4 6 17 25 29 41 12 17 34 55 50 85 56 111 170 300 181 300 3 0
47 -28 97 -62z m2054 -95 c74 -131 172 -318 172 -330 0 -6 -37 -33 -82 -59
-46 -26 -91 -54 -100 -62 -15 -13 -22 -7 -71 69 -66 101 -145 244 -153 274 -4
18 6 31 54 69 33 26 74 65 91 86 18 22 33 40 35 40 2 0 26 -39 54 -87z m722
42 c-7 -8 -18 -15 -24 -15 -6 0 -2 7 8 15 25 19 32 19 16 0z m-3297 -88 c26
-16 47 -34 47 -39 0 -10 -101 58 -150 103 l-35 31 45 -32 c25 -18 66 -46 93
-63z m681 -21 c6 -8 83 -52 171 -97 88 -45 165 -85 171 -90 6 -5 14 -51 18
-101 6 -88 39 -274 50 -286 3 -2 20 7 39 21 48 36 197 117 216 117 10 0 51
-36 93 -80 77 -81 98 -95 98 -61 0 22 96 151 113 151 16 0 172 -93 219 -130
20 -17 39 -26 42 -21 9 14 26 183 26 262 l0 77 63 22 c85 32 216 98 251 127
l29 24 21 -38 c12 -21 36 -68 53 -104 17 -37 47 -91 66 -122 l36 -55 -87 -55
c-125 -78 -259 -157 -266 -157 -3 0 -6 12 -7 28 -1 39 -42 155 -57 160 -16 5
-15 -12 3 -194 8 -82 16 -164 18 -182 l2 -33 -205 -2 -205 -2 -3 -46 -3 -47
-32 29 c-62 57 -100 64 -332 64 l-210 0 -6 -140 c-3 -77 -7 -141 -8 -142 -11
-19 -94 128 -136 240 l-18 47 -53 0 c-30 0 -54 3 -55 8 0 4 -2 18 -4 32 -8 63
-14 150 -10 150 2 0 19 -9 37 -20 69 -42 94 -12 31 38 -39 30 -249 172 -341
230 l-53 34 19 31 c11 18 49 82 85 142 37 61 73 120 82 132 8 12 15 29 15 37
0 20 9 20 24 2z m-583 -52 c17 -8 29 -18 26 -20 -3 -3 -20 4 -38 15 -40 25
-31 28 12 5z m69 -28 c0 -2 -7 -6 -15 -10 -8 -3 -15 -1 -15 4 0 6 7 10 15 10
8 0 15 -2 15 -4z m3176 -163 c-35 -168 -126 -302 -293 -432 -123 -95 -254
-171 -293 -169 -25 1 -70 34 -70 50 0 5 -13 21 -30 35 -16 13 -30 29 -30 33 0
5 44 41 98 79 53 38 128 96 165 128 37 32 110 92 162 133 196 157 283 229 291
242 16 25 16 -20 0 -99z m-3455 -168 c15 -11 67 -54 116 -95 48 -42 135 -107
193 -145 58 -37 106 -69 108 -70 8 -6 -93 -145 -102 -141 -6 3 -40 17 -76 32
-130 54 -358 216 -430 305 -48 60 -105 182 -124 266 -28 127 -32 127 136 -9
84 -68 164 -132 179 -143z m1292 174 c40 -12 78 -26 85 -32 12 -9 72 -94 72
-101 0 -2 -21 -11 -47 -21 -27 -10 -71 -33 -100 -52 -29 -18 -56 -33 -61 -33
-11 0 -19 48 -28 173 -3 48 -3 87 1 87 4 0 39 -10 78 -21z m696 -111 c-1 -132
-3 -135 -64 -93 -27 19 -53 34 -57 35 -3 0 -27 9 -52 20 l-47 20 23 35 c13 19
32 37 43 40 11 2 45 11 75 18 30 8 61 15 68 16 9 1 12 -23 11 -91z m-354 -68
c14 0 14 -9 1 -47 -9 -29 -20 -29 -40 1 -20 32 -24 50 -9 51 6 0 15 4 19 8 5
5 10 3 12 -2 2 -6 10 -11 17 -11z m-1008 -311 c22 -19 16 -49 -10 -49 -56 0
-174 -130 -192 -211 -13 -58 54 -149 110 -149 9 0 14 -4 10 -10 -3 -5 -11 -7
-18 -5 -7 2 -25 6 -42 10 l-30 7 24 -21 c13 -12 19 -21 13 -21 -13 0 -42 28
-42 41 0 6 -5 7 -11 4 -16 -10 -57 41 -65 81 -4 20 -4 63 -1 96 4 51 13 72 52
129 71 104 149 141 202 98z m2001 7 c34 -18 125 -113 144 -152 26 -51 29 -82
13 -114 -9 -17 -13 -35 -10 -40 3 -5 2 -11 -3 -14 -4 -2 -9 9 -10 26 -3 39
-31 94 -77 149 -43 50 -145 104 -182 94 -32 -8 -30 18 3 44 31 24 83 27 122 7z
m-1639 -208 c7 -23 25 -69 40 -102 35 -77 111 -271 111 -284 0 -5 14 -42 30
-82 17 -40 30 -76 30 -79 0 -3 -35 -6 -78 -7 l-78 -1 -19 50 c-22 56 -8 52
-168 49 l-67 -2 -22 -50 -22 -50 -78 0 -79 0 15 29 c9 16 25 60 36 98 11 37
51 159 87 271 l67 202 91 0 92 0 12 -42z m657 15 c46 -25 76 -67 93 -129 21
-80 -23 -206 -76 -220 -13 -4 -23 -10 -23 -14 0 -5 24 -50 54 -102 l54 -93
-37 -7 c-55 -11 -121 -9 -121 2 0 6 -20 46 -45 89 l-46 79 -42 -5 c-23 -3 -43
-6 -43 -7 -2 -2 -13 -118 -14 -142 0 -20 -6 -22 -75 -23 l-75 -1 0 301 0 301
178 -4 c160 -3 181 -5 218 -25z m541 12 c95 -28 152 -123 138 -229 -8 -62 -26
-98 -66 -129 l-32 -25 26 -53 c14 -30 37 -73 52 -96 l26 -43 -38 -1 c-21 -1
-55 -3 -75 -5 -29 -2 -40 1 -48 15 -5 10 -6 22 -2 26 4 5 2 5 -4 2 -6 -3 -27
23 -47 59 l-38 64 -49 0 c-49 0 -49 0 -48 -32 1 -18 0 -57 0 -85 l-2 -53 -74
0 -75 0 -1 300 0 300 153 0 c107 0 169 -5 204 -15z m386 -62 c-1 -43 -5 -112
-8 -153 -3 -41 -6 -94 -7 -117 l-1 -43 -62 0 -62 0 -7 113 c-3 61 -9 149 -13
195 l-6 82 85 0 85 0 -4 -77z m-2038 -113 c4 -6 -5 -5 -19 2 -14 6 -26 15 -26
20 0 10 36 -7 45 -22z m2150 10 c-10 -11 -20 -18 -23 -15 -7 6 18 35 31 35 5
0 2 -9 -8 -20z m81 -29 c0 -16 -3 -17 -14 -9 -12 10 -7 19 13 28 1 0 1 -9 1
-19z m-2175 -68 c13 -17 13 -17 -6 -3 -11 8 -22 16 -24 17 -2 2 0 3 6 3 6 0
17 -8 24 -17z m-41 -15 c0 -4 -9 -8 -20 -8 -11 0 -20 4 -20 9 0 6 9 9 20 8 11
-1 20 -5 20 -9z m2020 -224 c0 -73 -12 -86 -76 -82 -43 2 -54 6 -54 20 0 9 -4
18 -8 20 -4 2 -4 22 0 45 l9 42 57 3 c31 2 60 2 65 0 4 -2 7 -23 7 -48z"/>
<path d="M2525 4274 c-5 -1 -23 -5 -38 -8 -56 -13 -88 -121 -51 -174 31 -45
97 -64 147 -41 55 25 74 116 37 177 -11 17 -21 32 -22 32 -2 0 -17 4 -33 8
-17 5 -34 8 -40 6z"/>
<path d="M2817 4249 c-56 -43 -56 -145 0 -189 48 -38 137 -17 162 37 25 54 4
140 -38 163 -33 17 -96 12 -124 -11z"/>
<path d="M2681 4057 c-6 -8 -12 -24 -13 -38 -3 -21 1 -24 35 -27 43 -4 53 10
38 51 -11 29 -41 36 -60 14z"/>
<path d="M3211 3154 c-25 -10 -71 -43 -112 -81 -60 -57 -71 -74 -89 -130 -11
-36 -20 -86 -19 -112 l1 -46 21 65 c29 87 60 134 118 180 70 56 125 74 203 68
114 -10 214 -76 263 -176 24 -50 28 -69 28 -147 0 -106 -13 -148 -66 -215 -70
-88 -162 -125 -279 -111 -36 5 -66 7 -68 6 -2 -2 16 -15 40 -28 77 -45 234
-46 293 -3 18 13 15 14 -28 9 -26 -3 -47 -2 -47 3 0 5 20 22 45 38 183 115
221 410 72 572 -70 77 -158 118 -257 121 -49 2 -90 -3 -119 -13z"/>
<path d="M3223 3020 c-90 -21 -172 -102 -193 -192 -31 -126 35 -272 134 -297
231 -58 423 129 350 341 -8 25 -23 53 -32 61 -16 15 -17 13 -14 -24 6 -58 -5
-87 -41 -109 -42 -26 -76 -25 -118 3 -86 58 -41 192 66 192 51 0 49 10 -3 25
-42 11 -102 12 -149 0z m-5 -282 c-2 -13 -10 -23 -18 -23 -8 0 -16 10 -18 23
-3 17 2 22 18 22 16 0 21 -5 18 -22z m200 -47 c-2 -5 4 -16 14 -23 12 -10 14
-19 7 -35 -10 -27 -35 -30 -60 -7 -17 15 -17 18 9 45 30 31 33 33 30 20z
m-248 -41 c0 -9 -31 -23 -37 -16 -3 3 1 11 8 19 14 15 29 13 29 -3z m169 -27
c-3 -21 2 -33 13 -27 7 4 8 3 4 -4 -4 -7 -11 -12 -15 -12 -10 0 -21 37 -13 44
8 8 12 7 11 -1z m-99 -40 c0 -9 6 -13 15 -9 8 3 15 1 15 -4 0 -12 -30 -13 -49
-1 -8 5 -11 16 -8 26 8 19 27 11 27 -12z"/>
<path d="M2570 2750 c0 -5 5 -10 11 -10 5 0 7 5 4 10 -3 6 -8 10 -11 10 -2 0
-4 -4 -4 -10z"/>
<path d="M2500 2595 c-154 -44 -280 -174 -320 -330 -41 -167 -18 -346 60 -460
16 -23 26 -46 22 -50 -4 -3 0 -5 8 -3 8 2 14 -3 13 -9 -2 -7 3 -12 10 -10 6 1
11 -4 10 -10 -2 -7 5 -13 14 -13 9 0 13 -3 9 -7 -4 -4 8 -14 26 -23 18 -9 32
-22 30 -29 -1 -7 2 -10 8 -6 12 8 52 -4 46 -13 -2 -4 6 -8 17 -8 12 -1 47 -9
77 -18 36 -10 94 -16 166 -16 178 0 275 38 392 155 127 128 180 288 154 465
-19 136 -67 217 -175 296 -94 70 -190 96 -367 100 -109 3 -159 0 -200 -11z
m365 -63 c106 -29 156 -55 215 -109 43 -40 52 -53 45 -69 -4 -10 -9 -30 -10
-44 -5 -68 -62 -101 -140 -81 -24 6 -86 11 -137 11 -121 0 -335 34 -368 59
-14 10 -24 26 -23 36 1 12 -4 14 -15 9 -37 -16 -73 -16 -97 0 -34 22 -32 39
12 87 81 89 202 132 353 124 52 -2 127 -13 165 -23z m-245 -493 c52 -42 93
-96 80 -104 -6 -4 -33 12 -60 35 -51 43 -138 90 -165 90 -8 0 -15 5 -15 11 0
7 21 9 59 6 49 -4 68 -11 101 -38z m203 -5 c42 -21 75 -52 93 -86 24 -47 15
-53 -23 -16 -21 20 -66 51 -100 68 -35 17 -63 35 -63 40 0 16 58 12 93 -6z
m-466 -174 c18 -10 39 -31 49 -45 14 -22 24 -25 73 -25 59 -1 121 -18 149 -43
11 -10 24 -12 37 -7 11 5 43 9 71 9 28 1 68 8 87 16 52 22 129 20 158 -4 31
-25 24 -32 -76 -73 -70 -28 -93 -33 -189 -36 -98 -3 -118 -1 -193 23 -94 31
-182 92 -234 163 l-31 42 34 0 c18 0 47 -9 65 -20z"/>
<path d="M2325 2380 c4 -6 11 -8 16 -5 14 9 11 15 -7 15 -8 0 -12 -5 -9 -10z"/>
<path d="M1309 2531 c-16 -16 -29 -39 -29 -50 0 -21 44 -106 67 -129 7 -7 13
-17 13 -22 0 -14 84 -60 109 -60 32 0 88 28 96 47 3 9 -3 25 -14 37 -10 12
-22 42 -25 67 -8 53 -48 98 -108 123 -53 23 -76 20 -109 -13z"/>
<path d="M1660 2180 c-9 -6 -10 -10 -3 -10 6 0 15 5 18 10 8 12 4 12 -15 0z"/>
<path d="M1660 2130 c-9 -6 -10 -10 -3 -10 6 0 15 5 18 10 8 12 4 12 -15 0z"/>
<path d="M1727 2016 c-8 -20 39 -60 72 -61 28 -1 28 0 13 23 -10 15 -17 19
-22 12 -5 -8 -9 -7 -13 4 -4 10 -13 13 -23 9 -11 -4 -15 -3 -10 5 3 6 2 13 -3
16 -5 3 -11 0 -14 -8z"/>
<path d="M1860 1985 c13 -14 26 -25 28 -25 3 0 -5 11 -18 25 -13 14 -26 25
-28 25 -3 0 5 -11 18 -25z"/>
<path d="M1780 1941 c0 -5 7 -14 15 -21 8 -7 15 -9 15 -6 0 4 6 1 14 -6 8 -7
12 -16 9 -20 -4 -8 12 -12 30 -9 5 1 6 -2 3 -7 -3 -5 9 -19 26 -32 17 -12 28
-18 24 -11 -4 6 -2 11 3 11 6 0 11 8 11 18 -1 16 -1 16 -14 0 -10 -13 -15 -15
-24 -6 -17 17 -15 33 3 18 21 -18 19 3 -3 28 -25 29 -112 62 -112 43z"/>
<path d="M2018 1848 c7 -7 16 -7 28 0 14 8 13 10 -10 10 -18 0 -24 -4 -18 -10z"/>
<path d="M1990 1829 c0 -5 4 -8 9 -5 5 3 12 -1 15 -9 4 -13 2 -13 -14 -5 -24
13 -60 13 -60 0 0 -14 42 -50 52 -44 4 3 8 1 8 -5 0 -5 24 -21 54 -36 30 -15
57 -29 60 -33 4 -3 28 -14 54 -24 35 -13 42 -14 28 -3 -11 8 -14 15 -7 15 7 0
9 5 6 10 -3 6 -13 10 -21 10 -8 0 -12 -4 -9 -10 3 -5 1 -10 -4 -10 -6 0 -11 7
-11 16 0 13 7 15 33 10 23 -4 28 -3 17 4 -8 5 -24 10 -35 10 -19 1 -19 2 -3
14 10 7 15 16 11 20 -4 4 -14 -2 -23 -14 -14 -19 -17 -19 -35 -5 -14 12 -16
18 -7 21 6 3 10 10 6 15 -3 5 -14 5 -26 -2 -16 -9 -19 -8 -13 2 6 9 3 10 -10
5 -17 -6 -18 -5 -3 11 16 19 14 43 -4 43 -7 0 -6 -5 1 -14 9 -11 8 -15 -5 -20
-9 -4 -19 -4 -22 -1 -3 3 1 5 8 5 8 0 3 8 -10 20 -26 22 -40 26 -40 9z m153
-127 c-3 -7 -9 -10 -12 -5 -3 4 -10 11 -15 15 -4 4 1 6 12 5 12 -1 18 -6 15
-15z"/>
<path d="M4448 2013 c7 -3 16 -2 19 1 4 3 -2 6 -13 5 -11 0 -14 -3 -6 -6z"/>
<path d="M2575 1067 c-13 -10 -16 -21 -11 -41 6 -24 11 -27 39 -24 25 2 33 8
35 26 4 25 -13 52 -32 52 -7 0 -20 -6 -31 -13z"/>
<path d="M1837 607 c-15 -50 -28 -95 -27 -99 0 -5 29 -8 65 -8 36 0 65 3 65 8
0 13 -65 192 -70 192 -3 0 -18 -42 -33 -93z"/>
<path d="M2390 655 l0 -75 59 0 c77 0 111 24 111 80 0 53 -26 70 -107 70 l-63
0 0 -75z"/>
<path d="M2970 656 l0 -76 61 0 c54 0 64 3 90 29 34 34 37 59 10 92 -16 19
-30 24 -90 27 l-71 4 0 -76z"/>
<path d="M4085 800 c-21 -23 -14 -46 19 -62 20 -9 30 -8 51 6 31 20 32 40 3
60 -30 21 -51 20 -73 -4z"/>
<path d="M1015 790 c-31 -34 0 -69 50 -56 36 9 43 35 16 58 -29 23 -44 23 -66
-2z"/>
</g>
</svg>
